<?xml version="1.0" standalone="no"?><!DOCTYPE svg PUBLIC "-//W3C//DTD SVG 1.1//EN" "http://www.w3.org/Graphics/SVG/1.1/DTD/svg11.dtd"><svg t="1579516216286" class="icon" viewBox="0 0 1417 1024" version="1.1" xmlns="http://www.w3.org/2000/svg" p-id="3444" width="88.5625" height="64" xmlns:xlink="http://www.w3.org/1999/xlink"><defs><style type="text/css"></style></defs><path d="M655.13034699 24.96117182C385.70270657 24.96117182 167.86759245 242.79628589 167.86759245 512.22392634s217.83511408 487.26275206 487.26275454 487.26275205c269.42764044 0 487.26275206-217.83511408 487.26275209-487.26275205S922.65041744 24.96117182 655.13034699 24.96117182z m11.46500614 630.57532749h103.18365321c26.75494657 0 47.77598931 21.01964319 47.77598929 47.76899406 0 26.75634609-21.02104274 47.77598931-47.77598929 47.77598932h-103.18365321c-131.84616977 0-238.8547573-107.00998706-238.85475727-238.8561568s107.00998706-238.8561568 238.85475727-238.85615683h103.18365321c26.75494657 0 47.77598931 21.02104274 47.77598929 47.77039114 0 26.75494657-21.02104274 47.77598931-47.77598929 47.77598931h-103.18365321c-80.25504049 0-143.30977636 63.05473345-143.30977636 143.30977638-0.00139957 78.34187478 64.96790157 143.31117588 143.30977636 143.31117342z" p-id="3445" data-spm-anchor-id="a313x.7781069.0.i14" class="selected" fill="#2c2c2c"></path></svg>