<?xml version="1.0" standalone="no"?><!DOCTYPE svg PUBLIC "-//W3C//DTD SVG 1.1//EN" "http://www.w3.org/Graphics/SVG/1.1/DTD/svg11.dtd"><svg t="1584263496840" class="icon" viewBox="0 0 1222 1024" version="1.1" xmlns="http://www.w3.org/2000/svg" p-id="3506" xmlns:xlink="http://www.w3.org/1999/xlink" width="152.75" height="128"><defs><style type="text/css"></style></defs><path d="M1194.72445 121.904762c-14.628571-14.628571-34.133333-24.380952-58.514286-24.380952 0-4.87619 2.438095-43.885714-24.380952-70.704762-17.066667-17.066667-39.009524-26.819048-70.704762-26.819048L709.543497 0c-29.257143 0-53.638095 9.752381-73.142857 26.819048-7.314286 7.314286-12.190476 14.628571-17.066667 21.942857-4.87619-7.314286-9.752381-14.628571-14.628571-21.942857-17.066667-17.066667-41.447619-26.819048-73.142857-26.819048l-331.580952 0c-29.257143 0-53.638095 9.752381-70.704762 26.819048-26.819048 29.257143-24.380952 68.266667-24.380952 68.266667l0 0-9.752381 0c-29.257143 0-53.638095 9.752381-70.704762 26.819048-26.819048 29.257143-24.380952 68.266667-24.380952 68.266667l0 648.533333c0 2.438095 0 43.885714 29.257143 73.142857 17.066667 17.066667 39.009524 24.380952 65.828571 24.380952l431.542857 0c68.266667 0 80.457143 68.266667 80.457143 70.704762 0 4.87619 4.87619 9.752381 12.190476 9.752381 4.87619 0 12.190476-4.87619 12.190476-9.752381 0-2.438095 12.190476-70.704762 80.457143-70.704762l407.161905 0c26.819048 0 48.761905-9.752381 65.828571-24.380952 26.819048-26.819048 29.257143-68.266667 29.257143-73.142857l0-648.533333C1214.229211 192.609524 1219.105402 151.161905 1194.72445 121.904762zM148.781592 43.885714c12.190476-12.190476 29.257143-19.504762 51.2-19.504762l331.580952 0c24.380952 0 41.447619 7.314286 53.638095 19.504762 19.504762 19.504762 21.942857 48.761905 21.942857 56.07619l0 2.438095c0 7.314286 4.87619 12.190476 12.190476 12.190476 7.314286 0 12.190476-4.87619 12.190476-12.190476l0-2.438095c0-4.87619 2.438095-34.133333 21.942857-56.07619 12.190476-12.190476 31.695238-19.504762 53.638095-19.504762l331.580952 0c21.942857 0 41.447619 7.314286 51.2 19.504762 19.504762 19.504762 17.066667 51.2 17.066667 53.638095l0 648.533333c0 2.438095 0 34.133333-21.942857 56.07619-12.190476 12.190476-29.257143 17.066667-48.761905 17.066667l-326.704762 0c-48.761905 0-78.019048 29.257143-92.647619 56.07619-14.628571-26.819048-43.885714-56.07619-92.647619-56.07619l-326.704762 0c-19.504762 0-36.571429-4.87619-48.761905-17.066667-21.942857-21.942857-21.942857-56.07619-21.942857-56.07619l0-648.533333C131.714926 95.085714 129.27683 63.390476 148.781592 43.885714zM1189.848259 192.609524l0 648.533333c0 2.438095 0 34.133333-21.942857 56.07619-12.190476 12.190476-29.257143 17.066667-48.761905 17.066667l-407.161905 0c-48.761905 0-78.019048 26.819048-92.647619 56.07619-14.628571-26.819048-43.885714-56.07619-92.647619-56.07619l-431.542857 0c-19.504762 0-36.571429-4.87619-48.761905-17.066667-21.942857-21.942857-21.942857-56.07619-21.942857-56.07619l0-650.971429c0 0-2.438095-31.695238 17.066667-51.2 12.190476-12.190476 29.257143-19.504762 51.2-19.504762l9.752381 0 0 624.152381c0 2.438095 0 43.885714 26.819048 73.142857 17.066667 17.066667 39.009524 24.380952 65.828571 24.380952l326.704762 0c68.266667 0 80.457143 68.266667 80.457143 70.704762 2.438095 4.87619 4.87619 9.752381 12.190476 9.752381 7.314286 0 12.190476-4.87619 12.190476-9.752381 0-2.438095 12.190476-70.704762 80.457143-70.704762l326.704762 0c26.819048 0 48.761905-7.314286 65.828571-24.380952 26.819048-29.257143 29.257143-70.704762 29.257143-73.142857L1128.895878 121.904762c17.066667 0 31.695238 7.314286 41.447619 17.066667C1192.286354 158.47619 1189.848259 190.171429 1189.848259 192.609524z" p-id="3507" fill="#ffffff"></path><path d="M616.895878 195.047619c-119.466667 0-216.990476 97.52381-216.990476 216.990476 0 53.638095 19.504762 104.838095 53.638095 143.847619 39.009524 41.447619 153.6 173.104762 153.6 173.104762 2.438095 2.438095 4.87619 4.87619 9.752381 4.87619l0 0c2.438095 0 7.314286-2.438095 9.752381-4.87619 0 0 114.590476-129.219048 153.6-173.104762 36.571429-39.009524 56.07619-92.647619 56.07619-146.285714C836.32445 292.571429 738.80064 195.047619 616.895878 195.047619zM760.743497 543.695238c-31.695238 34.133333-117.028571 129.219048-143.847619 160.914286-26.819048-31.695238-112.152381-126.780952-143.847619-163.352381-31.695238-34.133333-48.761905-80.457143-48.761905-129.219048 0-107.27619 87.771429-192.609524 192.609524-192.609524 107.27619 0 192.609524 87.771429 192.609524 192.609524C811.943497 460.8 792.438735 507.12381 760.743497 543.695238z" p-id="3508" fill="#ffffff"></path><path d="M616.895878 277.942857c-75.580952 0-138.971429 60.952381-138.971429 138.971429 0 75.580952 60.952381 138.971429 138.971429 138.971429 75.580952 0 138.971429-63.390476 138.971429-138.971429C755.867307 338.895238 694.914926 277.942857 616.895878 277.942857zM616.895878 529.066667c-63.390476 0-114.590476-51.2-114.590476-114.590476 0-63.390476 51.2-114.590476 114.590476-114.590476 63.390476 0 114.590476 51.2 114.590476 114.590476C731.486354 477.866667 680.286354 529.066667 616.895878 529.066667z" p-id="3509" fill="#ffffff"></path></svg>