<?xml version="1.0" standalone="no"?><!DOCTYPE svg PUBLIC "-//W3C//DTD SVG 1.1//EN" "http://www.w3.org/Graphics/SVG/1.1/DTD/svg11.dtd"><svg t="1584263863335" class="icon" viewBox="0 0 1024 1024" version="1.1" xmlns="http://www.w3.org/2000/svg" p-id="6234" xmlns:xlink="http://www.w3.org/1999/xlink" width="128" height="128"><defs><style type="text/css"></style></defs><path d="M716.8 972.8a307.2 307.2 0 1 1 0-614.4 307.2 307.2 0 0 1 0 614.4z m51.2-358.4v-102.4a51.2 51.2 0 0 0-102.4 0v153.6a51.2 51.2 0 0 0 51.2 51.2h153.6a51.2 51.2 0 0 0 0-102.4h-102.4zM76.8 51.2h870.4a76.8 76.8 0 0 1 0 153.6h-870.4a76.8 76.8 0 0 1 0-153.6z m0 256h256a76.8 76.8 0 0 1 0 153.6h-256a76.8 76.8 0 0 1 0-153.6z m0 256h153.6a76.8 76.8 0 0 1 0 153.6h-153.6a76.8 76.8 0 0 1 0-153.6z m0 256h51.2a76.8 76.8 0 0 1 0 153.6h-51.2a76.8 76.8 0 0 1 0-153.6z" p-id="6235" fill="#ffffff"></path></svg>