<svg height="491pt" viewBox="0 -133 491.66488 491" width="491pt" xmlns="http://www.w3.org/2000/svg"><path d="m451.265625 76.332031c0 26.511719-21.492187 48-48 48-26.511719 0-48-21.488281-48-48 0-26.507812 21.488281-48 48-48 26.507813 0 48 21.492188 48 48zm0 0" fill="#fff"/><path d="m403.265625 136.332031c-33.199219 0-60-26.800781-60-60s26.800781-60 60-60 60 26.800781 60 60-26.800781 60-60 60zm0-96c-20 0-36 16-36 36s16 36 36 36 36-16 36-36-16-36-36-36zm0 0" fill="#444b54"/><path d="m455.265625 164.332031-88.800781-.398437-56-56c-15.199219-15.199219-36-24-57.601563-24h-217.597656c-18 0-34 13.597656-35.1992188 31.597656-1.2031252 20 14.3984378 36.402344 33.9999998 36.402344h234.398438c12 0 23.601562 4.800781 32 13.199218l38 38c2 2.398438 4 4 6.800781 5.601563 2.398437 1.199219 4.800781 2 7.199219 2.796875h.398437c1.601563.402344 2.800781.402344 4.402344.402344h99.199219c13.199218 0 24-12 24-25.199219-1.199219-12.800781-12-22.402344-25.199219-22.402344zm0 0" fill="#fdfdfd"/><g fill="#444b54"><path d="m356.066406 224.332031c-2 0-4-.398437-6.402344-.800781h-.398437c-4-.796875-7.601563-2-10.800781-4-3.601563-2-6.800782-4.796875-9.601563-8l-39.199219-39.199219c-5.199218-5.199219-12.398437-8-19.597656-8h-169.601562c-6.800782 0-12-5.199219-12-12s5.199218-12 12-12h169.601562c14 0 26.796875 5.601563 36.796875 15.199219l39.601563 39.601562c.398437.398438.398437.398438.800781.800782.800781 1.199218 2 2 3.199219 2.800781 1.199218.796875 2.398437 1.199219 3.601562 1.199219h.398438 2 99.199218c6.402344 0 12-6 12-13.199219 0-6.402344-5.199218-10.800781-12-10.800781l-89.199218-.402344c-3.199219 0-6.398438-1.199219-8.398438-3.597656l-56.800781-55.601563c-12.800781-12.800781-30-20-48-20h-214c-6.800781 0-12-5.199219-12-12s5.199219-12 12-12h214c24.398437 0 47.597656 9.601563 65.199219 26.800781l52.800781 52.800782 84 .398437h.398437c20 0 35.601563 15.199219 36 34.800781 0 20-16 37.199219-35.597656 37.199219h-100c.398438 0 .398438 0 0 0zm0 0"/><path d="m103.265625.332031c-20.800781 0-36 10-36 24s15.199219 24 36 24 36-10 36-24-15.199219-24-36-24zm0 0"/><path d="m203.265625.332031c-20.800781 0-36 10-36 24s15.199219 24 36 24 36-10 36-24-15.199219-24-36-24zm0 0"/><path d="m51.265625 152.332031c0 6.628907-5.375 12-12 12-6.628906 0-12-5.371093-12-12 0-6.628906 5.371094-12 12-12 6.625 0 12 5.371094 12 12zm0 0"/></g></svg>