<svg id="Capa_1" enable-background="new 0 0 512 512" height="512" viewBox="0 0 512 512" width="512" xmlns="http://www.w3.org/2000/svg"><g><g><path d="m384.72 193.37c0-70.977-57.744-128.72-128.72-128.72-26.621 0-52.17 8.059-73.884 23.305-3.39 2.38-4.208 7.058-1.829 10.447 2.381 3.39 7.06 4.21 10.448 1.828 19.176-13.463 41.744-20.58 65.265-20.58 62.705 0 113.72 51.015 113.72 113.72s-51.015 113.72-113.72 113.72-113.72-51.015-113.72-113.72c0-25.915 8.489-50.322 24.55-70.584 2.573-3.246 2.027-7.964-1.219-10.537-3.244-2.571-7.963-2.026-10.536 1.219-18.184 22.94-27.795 50.57-27.795 79.902 0 70.977 57.744 128.72 128.72 128.72s128.72-57.743 128.72-128.72z"/><path d="m256 281.683c48.696 0 88.313-39.617 88.313-88.313s-39.617-88.313-88.313-88.313-88.313 39.617-88.313 88.313c0 48.695 39.617 88.313 88.313 88.313zm0-161.626c40.425 0 73.313 32.889 73.313 73.313s-32.888 73.313-73.313 73.313-73.313-32.888-73.313-73.313 32.888-73.313 73.313-73.313z"/><path d="m256 241.276c26.416 0 47.907-21.49 47.907-47.906s-21.491-47.906-47.907-47.906-47.907 21.49-47.907 47.906 21.491 47.906 47.907 47.906zm0-80.812c18.145 0 32.907 14.762 32.907 32.906s-14.762 32.906-32.907 32.906-32.907-14.762-32.907-32.906 14.762-32.906 32.907-32.906z"/><path d="m387.321 436.391h-93.517v-53.371c88.587-17.63 155.566-95.96 155.566-189.65 0-106.625-86.745-193.37-193.37-193.37s-193.37 86.745-193.37 193.37c0 93.69 66.979 172.02 155.565 189.649v53.371h-93.517c-20.846 0-37.805 16.959-37.805 37.805v30.305c0 4.143 3.358 7.5 7.5 7.5h234.483c4.142 0 7.5-3.357 7.5-7.5s-3.358-7.5-7.5-7.5h-226.982v-22.805c0-12.574 10.23-22.805 22.805-22.805h262.643c12.575 0 22.805 10.23 22.805 22.805v22.805h-46.272c-4.142 0-7.5 3.357-7.5 7.5s3.358 7.5 7.5 7.5h53.772c4.142 0 7.5-3.357 7.5-7.5v-30.305c-.001-20.845-16.96-37.804-37.806-37.804zm-309.691-243.021c0-98.353 80.016-178.37 178.37-178.37s178.37 80.017 178.37 178.37-80.016 178.37-178.37 178.37-178.37-80.016-178.37-178.37zm155.565 243.021v-51.002c7.482.883 15.089 1.351 22.805 1.351s15.323-.468 22.805-1.351v51.002z"/></g></g></svg>