<svg height="511pt" viewBox="0 -3 511.9995 511" width="511pt" xmlns="http://www.w3.org/2000/svg"><path d="m443.539062 388.894531c-.257812-.46875-.558593-.910156-.90625-1.3125-5.304687-6.226562-11.53125-11.546875-18.5-15.816406-36.722656-22.507813-101.078124-60.8125-121.785156-65.910156-3.289062-1.160157-6.6875-1.761719-10.125-1.792969l-98.726562-.90625c-.097656 0-.195313 0-.289063 0-16.859375 0-31.121093 13.351562-31.859375 29.902344-.382812 8.582031 2.652344 16.738281 8.550782 22.964844 5.902343 6.230468 13.878906 9.703124 22.460937 9.785156l36.671875.335937 40.46875.25c3.214844.019531 5.8125 2.648438 5.792969 5.859375-.019531 3.199219-2.628907 5.785156-5.773438 5.785156-.011719 0-.023437 0-.035156 0l-117.582031-1.484374c-.320313 0-.847656-.113282-1.144532-.183594-.144531-.035156-.285156-.066406-.445312-.097656 0 0 0 0-.003906 0-.363282-.078126-.898438-.253907-1.144532-.375l-106.546874-72.273438c-6.253907-4.164062-13.738282-5.570312-21.078126-3.960938-7.335937 1.609376-13.550781 6.019532-17.492187 12.425782-7.722656 12.535156-4.0820312 28.835937 8.265625 37.273437l106.476562 84.65625c.105469.082031.210938.164063.320313.242188 4.273437 3.050781 9.019531 5.25 14.105469 6.53125 40.039062 10.101562 133.921875 33.703125 140.972656 34.710937 7.492188 1.0625 68.65625.425782 90.996094.152344l8.75 25.285156c1.109375 3.203125 4.109375 5.210938 7.316406 5.210938.839844 0 1.695312-.136719 2.53125-.425782 4.039062-1.398437 6.183594-5.808593 4.785156-9.847656l-10.578125-30.566406c-1.082031-3.117188-4.019531-5.207031-7.316406-5.207031-.03125 0-.066406 0-.101563 0-33.484374.4375-88.671874.847656-94.195312.074219-4.53125-.679688-59.238281-14.179688-139.371094-34.398438-3.148437-.792969-6.085937-2.140625-8.746094-4.011719l-106.546874-84.710937c-.167969-.136719-.347657-.265625-.527344-.386719-5.511719-3.667969-7.289063-11.054687-3.957032-16.460937 1.722657-2.800782 4.429688-4.722657 7.628907-5.425782 3.195312-.703125 6.460937-.089844 9.128906 1.6875l106.710937 72.386719c.089844.0625.179688.121094.273438.179687 2.476562 1.53125 5.1875 2.191407 6.222656 2.398438 1.203125.28125 2.789063.585938 4.5625.597656l117.585938 1.484375h.132812c11.6875 0 21.230469-9.46875 21.304688-21.171875.070312-11.738281-9.421875-21.355468-21.175782-21.4375l-40.449218-.25-36.648438-.335937c-4.34375-.039063-8.378906-1.796875-11.363281-4.949219-2.984375-3.148438-4.519531-7.277344-4.324219-11.628906.371094-8.363282 7.710938-15.113282 16.386719-15.113282.050781 0 .105469 0 .152344.003907l98.726562.902343c1.808594.019532 3.609375.355469 5.359375 1.003907.316406.113281.640625.210937.96875.285156 12.757813 2.90625 57.832032 27.484375 117.632813 64.132813 5.355469 3.285156 10.167969 7.34375 14.304687 12.074218l57.375 105.085938c2.046875 3.75 6.75 5.132812 10.503906 3.082031 3.753907-2.046875 5.132813-6.75 3.085938-10.503906zm0 0"/><path d="m309.589844 255.378906c.425781-.378906.8125-.800781 1.152344-1.277344 17.824218-20.011718 28.675781-46.367187 28.675781-75.210937 0-28.8125-10.824219-55.140625-28.613281-75.144531-.371094-.527344-.800782-.996094-1.269532-1.40625-20.707031-22.519532-50.394531-36.660156-83.328125-36.660156-32.929687 0-62.617187 14.140624-83.324219 36.660156-.472656.410156-.902343.878906-1.273437 1.410156-17.789063 20.003906-28.613281 46.328125-28.613281 75.140625s10.824218 55.136719 28.613281 75.144531c.367187.527344.796875.988282 1.261719 1.398438 20.707031 22.523437 50.398437 36.667968 83.335937 36.667968 32.960938 0 62.675781-14.164062 83.382813-36.722656zm-180.804688-68.746094h36.625c.5625 16.238282 2.890625 31.4375 6.640625 44.96875-7.964843 2.277344-15.398437 5.0625-22.125 8.304688-11.898437-14.84375-19.5625-33.214844-21.140625-53.273438zm21.140625-68.753906c6.726563 3.238282 14.15625 6.027344 22.125 8.300782-3.75 13.53125-6.078125 28.734374-6.640625 44.96875h-36.625c1.578125-20.058594 9.242188-38.429688 21.140625-53.269532zm173.703125 53.269532h-36.625c-.5625-16.234376-2.890625-31.4375-6.640625-44.96875 7.964844-2.273438 15.398438-5.0625 22.125-8.300782 11.894531 14.839844 19.5625 33.210938 21.140625 53.269532zm-21.140625 68.757812c-6.726562-3.242188-14.160156-6.027344-22.125-8.304688 3.75-13.53125 6.078125-28.734374 6.640625-44.96875h36.625c-1.578125 20.058594-9.246094 38.429688-21.140625 53.273438zm-68.539062-53.273438h37.550781c-.554688 14.726563-2.679688 28.777344-6.222656 41.375-10.007813-1.929687-20.558594-3.113281-31.328125-3.503906zm0-15.484374v-37.867188c10.769531-.390625 21.320312-1.574219 31.328125-3.507812 3.542968 12.601562 5.671875 26.652343 6.222656 41.378906h-37.550781zm0-53.359376v-35.027343c8.347656 3.386719 16.429687 12.089843 22.960937 25.039062 1.160156 2.300781 2.253906 4.699219 3.285156 7.183594-8.394531 1.503906-17.21875 2.457031-26.246093 2.804687zm-15.484375 0c-9.027344-.347656-17.851563-1.300781-26.246094-2.804687 1.03125-2.484375 2.125-4.882813 3.285156-7.183594 6.53125-12.945312 14.613282-21.652343 22.960938-25.039062zm0 15.492188v37.867188h-37.550782c.550782-14.722657 2.679688-28.773438 6.222657-41.375 10.007812 1.933593 20.558593 3.117187 31.328125 3.507812zm0 53.351562v37.871094c-10.769532.390625-21.320313 1.574219-31.328125 3.503906-3.542969-12.601562-5.671875-26.648437-6.222657-41.378906h37.550782zm0 53.359376v35.027343c-8.347656-3.386719-16.429688-12.089843-22.960938-25.035156-1.160156-2.300781-2.257812-4.703125-3.285156-7.183594 8.394531-1.507812 17.21875-2.460937 26.246094-2.808593zm15.484375 0c9.027343.347656 17.851562 1.300781 26.246093 2.808593-1.03125 2.480469-2.125 4.882813-3.285156 7.183594-6.53125 12.945313-14.613281 21.648437-22.960937 25.035156zm41.53125 6.292968c5.578125 1.570313 10.847656 3.410156 15.746093 5.5-8.191406 7.3125-17.617187 13.269532-27.917968 17.511719 4.640625-6.527344 8.738281-14.273437 12.171875-23.011719zm0-134.785156c-3.433594-8.738281-7.535157-16.488281-12.171875-23.015625 10.304687 4.246094 19.726562 10.199219 27.917968 17.511719-4.898437 2.089844-10.167968 3.933594-15.746093 5.503906zm-98.550781-.003906c-5.574219-1.566406-10.84375-3.410156-15.742188-5.5 8.191406-7.3125 17.613281-13.265625 27.917969-17.511719-4.640625 6.527344-8.738281 14.277344-12.175781 23.011719zm0 134.789062c3.4375 8.738282 7.539062 16.484375 12.175781 23.011719-10.304688-4.242187-19.726563-10.199219-27.914063-17.511719 4.894532-2.089844 10.164063-3.929687 15.738282-5.5zm0 0"/><path d="m487.953125 149.066406c-10.554687 0-19.535156 6.835938-22.765625 16.308594h-83.449219v-14.40625h44.988281c2.050782 0 4.019532-.816406 5.472657-2.265625l26.890625-26.890625h35.429687c4.273438 0 7.738281-3.464844 7.738281-7.742188 0-4.277343-3.464843-7.742187-7.738281-7.742187h-38.636719c-2.054687 0-4.019531.816406-5.472656 2.269531l-26.890625 26.890625h-41.78125v-41.921875c0-2.765625-1.476562-5.320312-3.871093-6.703125l-147.789063-85.328125c-2.394531-1.382812-5.347656-1.382812-7.742187 0l-147.789063 85.328125c-2.394531 1.382813-3.867187 3.9375-3.867187 6.703125v170.652344c0 2.765625 1.472656 5.320312 3.867187 6.703125l66.578125 38.4375c1.222656.703125 2.550781 1.039063 3.863281 1.039063 2.675781 0 5.277344-1.390626 6.710938-3.871094 2.140625-3.703125.871093-8.4375-2.832031-10.574219l-62.707032-36.203125v-161.714844l140.046875-80.859375 140.046875 80.859375v161.714844l-46.878906 27.0625c-3.703125 2.140625-4.972656 6.875-2.832031 10.574219 2.136719 3.703125 6.871093 4.972656 10.570312 2.835937l50.75-29.300781c2.394531-1.382813 3.871094-3.9375 3.871094-6.703125v-57.121094h43.242187l18.746094 18.746094c-1.8125 3.378906-2.84375 7.238281-2.84375 11.335938 0 13.261718 10.785156 24.050781 24.046875 24.050781s24.050781-10.789063 24.050781-24.050781c0-13.261719-10.789062-24.046876-24.050781-24.046876-3.523437 0-6.867187.765626-9.886719 2.132813l-21.382812-21.382813c-1.453125-1.453124-3.421875-2.269531-5.472656-2.269531h-46.449219v-10.757812h83.453125c3.230469 9.472656 12.210938 16.308593 22.761719 16.308593 13.261719 0 24.050781-10.789062 24.050781-24.050781s-10.789062-24.046875-24.046875-24.046875zm-14.460937 88.113282c0 4.722656-3.84375 8.566406-8.566407 8.566406-4.722656 0-8.566406-3.84375-8.566406-8.566406 0-4.722657 3.84375-8.566407 8.566406-8.566407 4.722657 0 8.566407 3.84375 8.566407 8.566407zm14.460937-55.5c-4.726563 0-8.570313-3.84375-8.570313-8.566407 0-4.722656 3.84375-8.566406 8.570313-8.566406 4.722656 0 8.566406 3.84375 8.566406 8.566406 0 4.722657-3.84375 8.566407-8.566406 8.566407zm0 0"/></svg>