<?xml version="1.0" standalone="no"?><!DOCTYPE svg PUBLIC "-//W3C//DTD SVG 1.1//EN" "http://www.w3.org/Graphics/SVG/1.1/DTD/svg11.dtd"><svg t="1584263811320" class="icon" viewBox="0 0 1024 1024" version="1.1" xmlns="http://www.w3.org/2000/svg" p-id="5850" xmlns:xlink="http://www.w3.org/1999/xlink" width="128" height="128"><defs><style type="text/css"></style></defs><path d="M933.477 862.343H667.552c-12.875-2.257-22.534-9.47-26.853-19.91-4.719-11.41-2.598-40.901-2.598-61.48V376.601c0-11.684-0.724-22.762 1.735-29.424 1.082-2.983 4.474-7.949 7.789-11.261 10.818-10.811 24.353-9.52 45.911-9.52H873.71c16.309 0 38.524-0.866 54.562 0 5.836 0.315 11.954 0.996 15.601 2.591 1.046 0.461 1.468 1.859 2.591 2.597 1.223 0.8 3.434 0.996 4.342 1.741 2.231 1.853 3.602 4.675 5.182 6.923 0.779 1.114 1.973 1.488 2.614 2.597 2.478 4.367 2.382 8.649 4.313 13.851v474.481c-2.704 17.511-12.679 27.745-29.438 31.166z m-147.266-25.098c2.768 4.445 6.698 8.159 12.121 8.63 2.446 0.232 6.373 0.014 8.662-0.863 2.488-0.949 7.615-5.995 8.655-8.642 2.871-7.268 0.273-14.249-1.729-17.322-2.073-3.137-3.904-4.206-6.054-5.181-3.92-1.814-5.874-2.479-12.138-0.878-11.696 2.979-14.69 15.938-9.517 24.256z m95.265-471.883c-1.149-5.037-5.632-5.626-13.849-6.068-19.528-1.036-42.265 0-60.646 0-31.659 0-56.468-1.831-81.432 0-0.892 0.071-0.489 0.731-0.863 0.87-4.242 1.694-7.992 6.222-5.169 12.12 2.289 4.835 8.407 4.275 17.329 4.324 39.622 0.22 72.726 0 110.86 0 6.959 0 15.965 0.682 22.528 0 4.747-0.477 5.912 0.147 8.651-2.597 1.98-1.964 3.654-4.114 2.591-8.649z m49.381 44.153H670.993c-1.005 0.147-0.927 1.361-0.863 2.598v383.576h260.727V409.515zM753.287 270.97h-43.316c-0.451-15.306 1.557-28.455-2.591-38.956-4.088-10.357-15.952-22.441-27.71-25.973-8.458-2.541-20.287-1.734-32.93-1.734H168.597c-11.896 0-23.22-0.807-32.052 1.734-13.611 3.906-24.455 15.455-28.578 25.973-3.708 9.475-2.601 24.031-2.601 39.827v254.552c0 14.907-1.889 33.203 1.735 43.305 4.503 12.531 15.82 24.09 27.719 27.697 14.629 4.445 38.56 1.744 57.17 1.744h412.325v109.083H124.43c-13.17 0-26.537 1.005-35.514-2.591-4.896-1.973-10.789-6.333-14.722-10.404-7.522-7.753-9.453-15.006-12.138-26.827V201.716c3.766-23.366 17.04-37.217 40.706-40.699h609.816c17.284 2.737 30.97 11.478 37.246 26.841 4.483 10.918 3.463 24.802 3.463 39.822v43.29z m-491.15 563.666c0.599-0.466 1.967-0.332 2.591-0.866 2.102-1.81 3.605-4.389 6.071-6.073 0.646-0.426 1.879-0.331 2.591-0.863 0.73-0.535 1.017-2.087 1.728-2.593 0.843-0.573 1.854-0.301 2.604-0.861 13.509-10.04 29.129-19.338 44.182-26.828v-63.216c-0.061-1.235-0.125-2.444 0.879-2.59h170.643v64.943c2.858 3.151 6.917 4.114 10.396 6.051 5.43 3.026 11.449 6.579 17.326 10.386 1.619 1.053 4.378 2.73 6.921 4.332 2.198 1.348 4.01 2.372 6.054 4.331 0.907 0.845 4.284 2.858 6.07 4.31 1.362 1.112 2.62 1.891 4.32 3.457 1.039 0.996 2.758 1.987 4.338 3.482 3.705 3.468 16.48 10.816 15.601 19.044-1.648 15.495-54.907 10.388-73.633 10.388H282.923c-21.832 0-41.366-4.102-26.853-20.778 1.403-1.611 3.975-4.452 6.067-6.056z" fill="#ffffff" p-id="5851"></path></svg>